# xmcd
#
# Track frame offsets: 
#        150
#        16063
#        29913
#        46951
#        65031
#        82014
#        94331
#        110332
#        127270
#        142319
#        156616
#        165255
#        180640
#        202731
#        215156
#        230347
#        244698
#
# Disc length: 3493 seconds
#
# Revision: 1
# Processed by: cddbd v1.5.2PL0 Copyright (c) Steve Scherf et al.
# Submitted via: ExactAudioCopy v0.90b4
#
DISCID=fb0da311
DTITLE=Kathy Kallilck - My Mother's Voice
DYEAR=2002
DGENRE=Bluegrass
TTITLE0=East Virginia Blues
TTITLE1=Hello Stranger
TTITLE2=Rosewood Casket
TTITLE3=Cotton-Eyed Joe
TTITLE4=My Native Home
TTITLE5=All The Good Times (Are Past And Gone)
TTITLE6=My Home's Across The Blue Ridge Mountains
TTITLE7=Shady Grove
TTITLE8=I Never Will Marry
TTITLE9=Wreck Of The Old #9
TTITLE10=The Tailor and The Mouse
TTITLE11=Willie Poor Boy
TTITLE12=Banks Of The Ohio
TTITLE13=Row Us Over The Tide
TTITLE14=Waterbound
TTITLE15=I'll Fly Away
TTITLE16=Web Of Birdsong
EXTD=
EXTT0=
EXTT1=
EXTT2=
EXTT3=
EXTT4=
EXTT5=
EXTT6=
EXTT7=
EXTT8=
EXTT9=
EXTT10=
EXTT11=
EXTT12=
EXTT13=
EXTT14=
EXTT15=
EXTT16=
PLAYORDER=
